<svg width="24" height="24" viewBox="0 0 24 24" fill="none" xmlns="http://www.w3.org/2000/svg">
<path d="M9.8788 17.2427C9.68105 17.2426 9.48775 17.184 9.32334 17.0741C9.15893 16.9642 9.03079 16.808 8.95512 16.6253C8.87945 16.4426 8.85965 16.2416 8.89822 16.0476C8.93679 15.8537 9.03199 15.6755 9.1718 15.5357L12.7069 12L9.17177 8.46436C8.98425 8.27685 8.87891 8.02252 8.87891 7.75733C8.87891 7.49214 8.98425 7.23781 9.17177 7.0503C9.35928 6.86278 9.61361 6.75743 9.8788 6.75743C10.144 6.75743 10.3983 6.86278 10.5858 7.05029L14.828 11.293C14.9209 11.3858 14.9946 11.4961 15.0448 11.6174C15.0951 11.7387 15.121 11.8687 15.121 12C15.121 12.1313 15.0951 12.2614 15.0448 12.3827C14.9946 12.504 14.9209 12.6142 14.828 12.7071L10.5858 16.9497C10.4931 17.0427 10.3829 17.1165 10.2616 17.1668C10.1402 17.217 10.0101 17.2428 9.8788 17.2427Z" fill="currentColor"/>
</svg>

