<svg width="24" height="24" viewBox="0 0 24 24" fill="none" xmlns="http://www.w3.org/2000/svg">
<path d="M13.5 14.9998H11.23L12.68 12.4998C12.7457 12.3855 12.7882 12.2595 12.8051 12.1288C12.8221 11.9981 12.8131 11.8654 12.7787 11.7382C12.7444 11.6109 12.6853 11.4917 12.6049 11.3874C12.5245 11.283 12.4243 11.1954 12.31 11.1298C12.1958 11.0641 12.0697 11.0216 11.939 11.0047C11.8083 10.9877 11.6756 10.9967 11.5484 11.0311C11.4212 11.0654 11.302 11.1245 11.1976 11.2049C11.0932 11.2853 11.0057 11.3855 10.94 11.4998L8.63001 15.4998C8.54224 15.6518 8.49604 15.8243 8.49604 15.9998C8.49604 16.1753 8.54224 16.3478 8.63001 16.4998C8.71812 16.6524 8.84498 16.779 8.99776 16.8668C9.15054 16.9546 9.3238 17.0005 9.50001 16.9998H11.77L10.32 19.4998C10.1874 19.7305 10.1519 20.0045 10.2213 20.2614C10.2907 20.5183 10.4593 20.7372 10.69 20.8698C10.9208 21.0024 11.1947 21.0379 11.4516 20.9685C11.7086 20.8991 11.9274 20.7305 12.06 20.4998L14.37 16.4998C14.4578 16.3478 14.504 16.1753 14.504 15.9998C14.504 15.8243 14.4578 15.6518 14.37 15.4998C14.2819 15.3472 14.155 15.2206 14.0023 15.1328C13.8495 15.045 13.6762 14.9991 13.5 14.9998ZM18.42 7.20979C17.8083 5.8056 16.753 4.64079 15.4157 3.89395C14.0785 3.14711 12.5333 2.85946 11.0169 3.07511C9.50051 3.29077 8.09671 3.99781 7.02073 5.08785C5.94475 6.17788 5.25597 7.59074 5.06001 9.10979C4.1066 9.33811 3.27023 9.90862 2.70975 10.713C2.14927 11.5173 1.9037 12.4995 2.01968 13.473C2.13566 14.4465 2.60511 15.3435 3.33888 15.9936C4.07265 16.6438 5.01964 17.0019 6.00001 16.9998C6.26523 16.9998 6.51958 16.8944 6.70712 16.7069C6.89466 16.5194 7.00001 16.265 7.00001 15.9998C7.00001 15.7346 6.89466 15.4802 6.70712 15.2927C6.51958 15.1051 6.26523 14.9998 6.00001 14.9998C5.46958 14.9998 4.96087 14.7891 4.5858 14.414C4.21073 14.0389 4.00001 13.5302 4.00001 12.9998C4.00001 12.4694 4.21073 11.9606 4.5858 11.5856C4.96087 11.2105 5.46958 10.9998 6.00001 10.9998C6.26523 10.9998 6.51958 10.8944 6.70712 10.7069C6.89466 10.5194 7.00001 10.265 7.00001 9.99979C7.00257 8.81707 7.4243 7.67354 8.19028 6.77237C8.95627 5.8712 10.0169 5.27074 11.1838 5.07766C12.3506 4.88459 13.5481 5.1114 14.5636 5.7178C15.579 6.3242 16.3466 7.27093 16.73 8.38979C16.7887 8.55977 16.8921 8.71078 17.0294 8.82693C17.1666 8.94308 17.3327 9.02007 17.51 9.04979C18.243 9.18504 18.8994 9.58832 19.3513 10.1811C19.8033 10.7738 20.0183 11.5135 19.9547 12.2562C19.891 12.9988 19.5532 13.6912 19.007 14.1984C18.4608 14.7056 17.7453 14.9913 17 14.9998C16.7348 14.9998 16.4804 15.1051 16.2929 15.2927C16.1054 15.4802 16 15.7346 16 15.9998C16 16.265 16.1054 16.5194 16.2929 16.7069C16.4804 16.8944 16.7348 16.9998 17 16.9998C18.1994 16.9965 19.3576 16.5622 20.2634 15.7761C21.1692 14.99 21.7623 13.9045 21.9345 12.7175C22.1066 11.5306 21.8464 10.3213 21.2012 9.31025C20.5561 8.29919 19.569 7.55371 18.42 7.20979Z" fill="currentColor"/>
</svg>

